<svg width="697" height="72" viewBox="0 0 697 72" fill="none" xmlns="http://www.w3.org/2000/svg">
<path d="M12.048 45.328V33.616H26.64C28.496 33.616 30.192 33.232 31.728 32.464C33.264 31.696 34.48 30.576 35.376 29.104C36.272 27.632 36.72 25.84 36.72 23.728C36.72 21.68 36.272 19.92 35.376 18.448C34.48 16.976 33.264 15.856 31.728 15.088C30.192 14.32 28.496 13.936 26.64 13.936H12.048V2.224H28.848C33.136 2.224 37.008 3.088 40.464 4.816C43.92 6.544 46.64 9.04 48.624 12.304C50.672 15.504 51.696 19.312 51.696 23.728C51.696 28.144 50.672 31.984 48.624 35.248C46.64 38.448 43.92 40.944 40.464 42.736C37.008 44.464 33.136 45.328 28.848 45.328H12.048ZM0.528 70V2.224H15.6V70H0.528ZM59.4653 70V0.303999H74.1533V70H59.4653ZM105.233 71.056C100.945 71.056 97.1365 70.192 93.8085 68.464C90.5445 66.672 87.9845 64.24 86.1285 61.168C84.2725 58.032 83.3445 54.448 83.3445 50.416V23.344H98.0325V50.224C98.0325 51.824 98.2885 53.2 98.8005 54.352C99.3765 55.504 100.209 56.4 101.297 57.04C102.385 57.68 103.697 58 105.233 58C107.409 58 109.137 57.328 110.417 55.984C111.697 54.576 112.337 52.656 112.337 50.224V23.344H127.025V50.32C127.025 54.416 126.097 58.032 124.241 61.168C122.385 64.24 119.825 66.672 116.561 68.464C113.297 70.192 109.521 71.056 105.233 71.056ZM136.247 70V23.344H150.935V70H136.247ZM166.103 70V42.736C166.103 40.368 165.367 38.544 163.895 37.264C162.487 35.92 160.727 35.248 158.615 35.248C157.142 35.248 155.831 35.568 154.679 36.208C153.527 36.784 152.599 37.616 151.895 38.704C151.255 39.792 150.935 41.136 150.935 42.736L145.271 40.24C145.271 36.528 146.071 33.36 147.671 30.736C149.271 28.048 151.447 26 154.199 24.592C156.951 23.12 160.055 22.384 163.511 22.384C166.775 22.384 169.687 23.12 172.247 24.592C174.871 26.064 176.951 28.112 178.487 30.736C180.023 33.36 180.791 36.496 180.791 40.144V70H166.103ZM195.959 70V42.736C195.959 40.368 195.223 38.544 193.751 37.264C192.343 35.92 190.583 35.248 188.471 35.248C186.999 35.248 185.687 35.568 184.535 36.208C183.383 36.784 182.455 37.616 181.75 38.704C181.111 39.792 180.791 41.136 180.791 42.736L172.343 41.584C172.471 37.616 173.399 34.224 175.127 31.408C176.919 28.528 179.255 26.32 182.135 24.784C185.079 23.184 188.375 22.384 192.023 22.384C195.607 22.384 198.775 23.152 201.527 24.688C204.343 26.16 206.551 28.304 208.151 31.12C209.815 33.872 210.647 37.2 210.647 41.104V70H195.959ZM246.939 70.96C243.803 70.96 240.923 70.32 238.299 69.04C235.675 67.696 233.531 65.936 231.867 63.76C230.203 61.52 229.243 59.024 228.987 56.272V36.592C229.243 33.84 230.203 31.408 231.867 29.296C233.531 27.12 235.675 25.424 238.299 24.208C240.923 22.992 243.803 22.384 246.939 22.384C251.355 22.384 255.259 23.44 258.651 25.552C262.107 27.664 264.795 30.544 266.715 34.192C268.699 37.84 269.691 42 269.691 46.672C269.691 51.344 268.699 55.504 266.715 59.152C264.795 62.8 262.107 65.68 258.651 67.792C255.259 69.904 251.355 70.96 246.939 70.96ZM220.059 70V0.303999H234.747V34.768L232.347 46.096L234.555 57.424V70H220.059ZM244.347 57.712C246.395 57.712 248.187 57.232 249.723 56.272C251.323 55.312 252.571 54 253.467 52.336C254.363 50.672 254.811 48.784 254.811 46.672C254.811 44.496 254.363 42.576 253.467 40.912C252.571 39.248 251.323 37.968 249.723 37.072C248.187 36.112 246.395 35.632 244.347 35.632C242.299 35.632 240.475 36.112 238.875 37.072C237.275 37.968 236.027 39.248 235.131 40.912C234.299 42.576 233.883 44.496 233.883 46.672C233.883 48.848 234.331 50.768 235.227 52.432C236.123 54.096 237.339 55.408 238.875 56.368C240.475 57.264 242.299 57.712 244.347 57.712ZM300.193 71.056C295.137 71.056 290.625 70.032 286.657 67.984C282.753 65.872 279.681 62.96 277.441 59.248C275.201 55.536 274.081 51.344 274.081 46.672C274.081 42 275.169 37.84 277.345 34.192C279.585 30.48 282.593 27.568 286.369 25.456C290.145 23.344 294.401 22.288 299.137 22.288C303.745 22.288 307.809 23.28 311.329 25.264C314.849 27.248 317.601 30 319.585 33.52C321.633 37.04 322.657 41.072 322.657 45.616C322.657 46.448 322.593 47.344 322.465 48.304C322.401 49.2 322.241 50.256 321.985 51.472L281.761 51.568V41.488L315.745 41.392L309.409 45.616C309.345 42.928 308.929 40.72 308.161 38.992C307.393 37.2 306.241 35.856 304.705 34.96C303.233 34 301.409 33.52 299.233 33.52C296.929 33.52 294.913 34.064 293.185 35.152C291.521 36.176 290.209 37.648 289.249 39.568C288.353 41.488 287.905 43.824 287.905 46.576C287.905 49.328 288.385 51.696 289.345 53.68C290.369 55.6 291.777 57.104 293.569 58.192C295.425 59.216 297.601 59.728 300.097 59.728C302.401 59.728 304.481 59.344 306.337 58.576C308.193 57.744 309.825 56.528 311.233 54.928L319.297 62.992C316.993 65.68 314.209 67.696 310.945 69.04C307.681 70.384 304.097 71.056 300.193 71.056ZM329.747 70V23.344H344.435V70H329.747ZM344.435 44.368L338.291 39.568C339.507 34.128 341.555 29.904 344.435 26.896C347.315 23.888 351.315 22.384 356.435 22.384C358.675 22.384 360.627 22.736 362.291 23.44C364.019 24.08 365.523 25.104 366.803 26.512L358.067 37.552C357.427 36.848 356.627 36.304 355.667 35.92C354.707 35.536 353.619 35.344 352.403 35.344C349.971 35.344 348.019 36.112 346.547 37.648C345.139 39.12 344.435 41.36 344.435 44.368ZM386.676 71.152C383.924 71.152 381.204 70.8 378.516 70.096C375.892 69.392 373.428 68.4 371.124 67.12C368.884 65.776 366.964 64.24 365.364 62.512L373.716 54.064C375.252 55.728 377.076 57.04 379.188 58C381.3 58.896 383.604 59.344 386.1 59.344C387.828 59.344 389.14 59.088 390.036 58.576C390.996 58.064 391.476 57.36 391.476 56.464C391.476 55.312 390.9 54.448 389.748 53.872C388.66 53.232 387.252 52.688 385.524 52.24C383.796 51.728 381.972 51.184 380.052 50.608C378.132 50.032 376.308 49.232 374.58 48.208C372.852 47.184 371.444 45.776 370.356 43.984C369.268 42.128 368.724 39.792 368.724 36.976C368.724 33.968 369.492 31.376 371.028 29.2C372.564 26.96 374.74 25.2 377.556 23.92C380.372 22.64 383.668 22 387.444 22C391.412 22 395.06 22.704 398.388 24.112C401.78 25.456 404.532 27.472 406.644 30.16L398.292 38.608C396.82 36.88 395.156 35.664 393.3 34.96C391.508 34.256 389.748 33.904 388.02 33.904C386.356 33.904 385.108 34.16 384.276 34.672C383.444 35.12 383.028 35.792 383.028 36.688C383.028 37.648 383.572 38.416 384.66 38.992C385.748 39.568 387.156 40.08 388.884 40.528C390.612 40.976 392.436 41.52 394.356 42.16C396.276 42.8 398.1 43.664 399.828 44.752C401.556 45.84 402.964 47.312 404.052 49.168C405.14 50.96 405.684 53.328 405.684 56.272C405.684 60.816 403.956 64.432 400.5 67.12C397.108 69.808 392.5 71.152 386.676 71.152ZM444.798 45.328V33.616H459.39C461.246 33.616 462.942 33.232 464.478 32.464C466.014 31.696 467.23 30.576 468.126 29.104C469.022 27.632 469.47 25.84 469.47 23.728C469.47 21.68 469.022 19.92 468.126 18.448C467.23 16.976 466.014 15.856 464.478 15.088C462.942 14.32 461.246 13.936 459.39 13.936H444.798V2.224H461.598C465.886 2.224 469.758 3.088 473.214 4.816C476.67 6.544 479.39 9.04 481.374 12.304C483.422 15.504 484.446 19.312 484.446 23.728C484.446 28.144 483.422 31.984 481.374 35.248C479.39 38.448 476.67 40.944 473.214 42.736C469.758 44.464 465.886 45.328 461.598 45.328H444.798ZM433.278 70V2.224H448.35V70H433.278ZM512.711 71.056C507.911 71.056 503.559 70 499.655 67.888C495.815 65.712 492.775 62.768 490.535 59.056C488.295 55.344 487.175 51.184 487.175 46.576C487.175 41.968 488.295 37.84 490.535 34.192C492.775 30.544 495.815 27.664 499.655 25.552C503.495 23.376 507.847 22.288 512.711 22.288C517.575 22.288 521.927 23.344 525.767 25.456C529.607 27.568 532.647 30.48 534.887 34.192C537.127 37.84 538.247 41.968 538.247 46.576C538.247 51.184 537.127 55.344 534.887 59.056C532.647 62.768 529.607 65.712 525.767 67.888C521.927 70 517.575 71.056 512.711 71.056ZM512.711 57.712C514.823 57.712 516.679 57.264 518.279 56.368C519.879 55.408 521.095 54.096 521.927 52.432C522.823 50.704 523.271 48.752 523.271 46.576C523.271 44.4 522.823 42.512 521.927 40.912C521.031 39.248 519.783 37.968 518.183 37.072C516.647 36.112 514.823 35.632 512.711 35.632C510.663 35.632 508.839 36.112 507.239 37.072C505.639 37.968 504.391 39.248 503.495 40.912C502.599 42.576 502.151 44.496 502.151 46.672C502.151 48.784 502.599 50.704 503.495 52.432C504.391 54.096 505.639 55.408 507.239 56.368C508.839 57.264 510.663 57.712 512.711 57.712ZM545.559 70V23.344H560.247V70H545.559ZM560.247 44.368L554.103 39.568C555.319 34.128 557.367 29.904 560.247 26.896C563.127 23.888 567.127 22.384 572.247 22.384C574.487 22.384 576.439 22.736 578.103 23.44C579.831 24.08 581.335 25.104 582.615 26.512L573.879 37.552C573.239 36.848 572.439 36.304 571.479 35.92C570.519 35.536 569.431 35.344 568.215 35.344C565.783 35.344 563.831 36.112 562.359 37.648C560.951 39.12 560.247 41.36 560.247 44.368ZM593.621 70V4.048H608.309V70H593.621ZM583.061 35.824V23.344H618.869V35.824H583.061ZM643.891 70.96C639.603 70.96 635.763 69.904 632.371 67.792C629.043 65.68 626.387 62.8 624.403 59.152C622.483 55.504 621.523 51.344 621.523 46.672C621.523 42 622.483 37.84 624.403 34.192C626.387 30.544 629.043 27.664 632.371 25.552C635.763 23.44 639.603 22.384 643.891 22.384C647.027 22.384 649.843 22.992 652.339 24.208C654.899 25.424 656.979 27.12 658.579 29.296C660.179 31.408 661.075 33.84 661.267 36.592V56.752C661.075 59.504 660.179 61.968 658.579 64.144C657.043 66.256 654.995 67.92 652.435 69.136C649.875 70.352 647.027 70.96 643.891 70.96ZM646.867 57.712C650.003 57.712 652.531 56.688 654.451 54.64C656.371 52.528 657.331 49.872 657.331 46.672C657.331 44.496 656.883 42.576 655.987 40.912C655.155 39.248 653.939 37.968 652.339 37.072C650.803 36.112 649.011 35.632 646.963 35.632C644.915 35.632 643.091 36.112 641.491 37.072C639.955 37.968 638.707 39.248 637.747 40.912C636.851 42.576 636.403 44.496 636.403 46.672C636.403 48.784 636.851 50.672 637.747 52.336C638.643 54 639.891 55.312 641.491 56.272C643.091 57.232 644.883 57.712 646.867 57.712ZM656.755 70V57.424L658.963 46.096L656.755 34.768V23.344H671.155V70H656.755ZM681.497 70V0.303999H696.185V70H681.497Z" fill="#F9FAFB"/>
</svg>
