<svg width="462" height="283" viewBox="0 0 462 283" fill="none" xmlns="http://www.w3.org/2000/svg">
<path d="M48.2 180.2V131.4H109C116.733 131.4 123.8 129.8 130.2 126.6C136.6 123.4 141.667 118.733 145.4 112.6C149.133 106.467 151 99 151 90.2C151 81.6667 149.133 74.3333 145.4 68.2C141.667 62.0667 136.6 57.4 130.2 54.2C123.8 51 116.733 49.4 109 49.4H48.2V0.599988H118.2C136.067 0.599988 152.2 4.19999 166.6 11.4C181 18.6 192.333 29 200.6 42.6C209.133 55.9333 213.4 71.8 213.4 90.2C213.4 108.6 209.133 124.6 200.6 138.2C192.333 151.533 181 161.933 166.6 169.4C152.2 176.6 136.067 180.2 118.2 180.2H48.2ZM0.200001 283V0.599988H63V283H0.200001ZM296.638 180.2V131.4H357.438C365.171 131.4 372.238 129.8 378.638 126.6C385.038 123.4 390.104 118.733 393.838 112.6C397.571 106.467 399.438 99 399.438 90.2C399.438 81.6667 397.571 74.3333 393.838 68.2C390.104 62.0667 385.038 57.4 378.638 54.2C372.238 51 365.171 49.4 357.438 49.4H296.638V0.599988H366.638C384.504 0.599988 400.638 4.19999 415.038 11.4C429.438 18.6 440.771 29 449.038 42.6C457.571 55.9333 461.838 71.8 461.838 90.2C461.838 108.6 457.571 124.6 449.038 138.2C440.771 151.533 429.438 161.933 415.038 169.4C400.638 176.6 384.504 180.2 366.638 180.2H296.638ZM248.638 283V0.599988H311.438V283H248.638Z" fill="#F9FAFB"/>
</svg>
